<svg width="307" height="62" viewBox="0 0 307 62" fill="none" xmlns="http://www.w3.org/2000/svg">
<g clip-path="url(#clip0_46_353)">
<path d="M0.0118038 62C0.0118038 52.4684 -0.00484047 42.9312 0.00625572 33.3996C0.0173519 22.5475 7.37413 13.9646 18.1707 12.2946C24.3569 11.3403 30.3488 11.9173 35.8192 15.2129C41.5837 18.686 44.846 23.8291 45.7392 30.4702C45.7836 30.7919 45.8003 31.1193 45.8446 31.4411C45.8613 31.5409 45.8724 31.6353 45.9001 31.8794H53.6675C53.9171 30.6754 54.1557 29.416 54.4442 28.1677C56.5691 19.0244 64.1145 12.4277 73.4908 11.9617C80.0043 11.6399 86.54 11.7897 93.0645 11.7564C98.829 11.7287 104.599 11.7564 110.363 11.7564H112.266V0H123.141V11.8618H195.094V21.6043H123.263C123.23 22.3311 123.185 22.8637 123.185 23.3908C123.185 30.8641 123.174 38.3429 123.185 45.8162C123.191 50.5709 124.894 52.2298 129.71 52.2354C132.861 52.2354 136.007 52.2354 139.397 52.2354V61.9945H126.348C125.388 61.9945 124.445 61.8447 123.501 61.656H123.49C118.719 60.7184 115.129 58.194 113.432 53.5946C112.699 51.6084 112.361 49.3781 112.328 47.2532C112.2 39.4026 112.278 31.5465 112.278 23.6904C112.278 23.0634 112.278 22.4421 112.278 21.6931H110.253C102.313 21.6931 94.3683 21.6931 86.429 21.6931C82.7839 21.6931 79.1388 21.6265 75.4937 21.7208C69.4241 21.8762 64.5861 26.1482 63.9203 32.0347H104.421V41.7994H63.4654C64.3697 43.5304 64.919 45.0173 65.8289 46.2323C68.3588 49.5945 71.8763 51.0092 76.054 51.0037C84.9754 50.987 93.8967 51.0037 102.818 51.0037C103.445 51.0037 104.066 51.0037 104.799 51.0037V62H76.8363C75.6102 62 73.6129 61.8668 72.3979 61.706H72.3867C63.2712 60.5187 56.4138 54.2382 54.4497 45.2614C54.2001 44.1185 53.9726 42.97 53.7507 41.8937H46.0388V62H35.2644C35.2478 61.4618 35.22 60.9181 35.22 60.38C35.22 51.503 35.2811 42.6205 35.1923 33.7435C35.1202 26.5976 29.9105 21.4434 22.9587 21.4379C16.007 21.4379 10.8084 26.6087 10.764 33.7435C10.7085 43.1642 10.764 52.5849 10.7807 62H0.0118038Z" fill="white"/>
<path d="M202.728 62C202.744 52.6847 202.728 43.3695 202.789 34.0542C202.838 26.3423 205.601 19.84 212.381 15.7732C220.997 10.6024 230.013 10.5358 238.724 15.5069C245.448 19.3462 248.544 25.6211 248.66 33.2442C248.793 42.2321 248.694 51.2256 248.699 60.219C248.699 60.8127 248.738 61.4063 248.755 62H237.98C237.969 61.2399 237.952 60.4853 237.947 59.7253C237.947 51.0591 237.997 42.393 237.919 33.7324C237.864 27.9846 234.485 23.5406 229.292 22.0648C223.999 20.5612 218.495 22.5197 215.51 26.9637C213.996 29.2163 213.557 31.7406 213.552 34.3871C213.541 43.5914 213.513 52.8012 213.496 62.0055H202.722L202.728 62Z" fill="white"/>
<path d="M170.205 62C169.034 62 167.863 61.8669 166.72 61.6172C165.933 61.4452 165.145 61.2677 164.368 61.0402C154.62 58.1996 147.868 50.9926 147.796 40.3513C147.779 37.655 147.796 34.9586 147.796 32.1568H159.108C159.108 34.3206 159.02 36.4177 159.136 38.5094C159.236 40.3347 159.319 42.2211 159.841 43.9521C161.5 49.4502 166.998 52.829 172.923 52.2076C178.965 51.5751 183.592 47.1311 184.08 41.3167C184.286 38.8922 184.175 36.4455 184.208 34.0099C184.214 33.4273 184.208 32.8448 184.208 32.0514H195.227C195.199 38.0156 195.92 43.891 193.213 49.3892C189.701 56.5241 183.792 60.3578 176.063 61.6671H176.047C174.982 61.8502 173.905 61.9945 172.823 61.9945H170.205V62Z" fill="white"/>
<path d="M281.472 61.7281C267.085 61.7337 256.439 51.564 256.3 36.9614C256.172 23.3519 265.909 12.0172 281.577 11.9561C296.013 11.9007 306.56 22.6196 306.544 37.1445C306.527 51.1646 295.747 61.7392 281.472 61.7281Z" fill="white"/>
</g>
<defs>
<clipPath id="clip0_46_353">
<rect width="306.544" height="62" fill="white"/>
</clipPath>
</defs>
</svg>
